<svg xmlns="http://www.w3.org/2000/svg" version="1.1" xmlns:xlink="http://www.w3.org/1999/xlink" xmlns:svgjs="http://svgjs.com/svgjs" width="500" height="500"><svg width="500" height="500" viewBox="0 0 500 500" fill="none" xmlns="http://www.w3.org/2000/svg">
<path d="M318.394 234.518C318.05 238.021 317.436 241.376 316.728 243.498C314.967 248.772 310.938 254.308 305.802 258.861C300.668 263.412 294.655 266.78 289.139 267.946C288.716 268.035 287.676 268.146 285.876 268.249C284.136 268.348 281.825 268.433 278.964 268.501C273.243 268.638 265.379 268.71 255.584 268.71H184.246C177.131 268.71 170.659 268.737 165.964 268.78C163.618 268.801 161.707 268.827 160.38 268.855C159.719 268.869 159.187 268.885 158.813 268.901C158.632 268.909 158.456 268.919 158.313 268.932C158.252 268.937 158.133 268.948 158.004 268.971C157.957 268.98 157.792 269.009 157.596 269.079C157.513 269.109 157.271 269.198 157.005 269.388C156.822 269.518 156 270.142 156 271.338C156 271.509 156.019 271.643 156.025 271.687C156.034 271.748 156.044 271.797 156.05 271.827C156.057 271.863 156.064 271.894 156.07 271.92C156.074 271.936 156.078 271.95 156.08 271.96C156.094 272.015 156.109 272.067 156.12 272.104C156.143 272.183 156.173 272.28 156.206 272.384C156.273 272.596 156.368 272.892 156.488 273.257C156.728 273.989 157.073 275.028 157.497 276.293C158.346 278.826 159.516 282.285 160.803 286.059C163.374 293.6 171.087 316.235 177.944 336.36C186.211 360.625 190.614 373.539 193.033 380.539C195.408 387.412 195.919 388.747 196.365 389.578L196.37 389.588C196.417 389.679 196.673 390.167 197.179 390.532C197.51 390.771 198.179 391.119 199.053 390.96C199.897 390.806 200.386 390.277 200.596 389.99C200.95 389.51 201.059 388.99 201.09 388.84L201.093 388.828C201.144 388.585 201.178 388.321 201.204 388.063C201.306 387.052 201.369 385.182 201.415 381.989C201.507 375.533 201.528 363.257 201.545 340.544L201.565 314.192L213.054 314.166C228.816 314.129 240.296 314.102 259.006 314.138C287.403 314.193 290.593 314.096 297.67 312.648C302.113 311.739 305.097 311.042 307.99 310.061C310.884 309.079 313.621 307.834 317.588 305.89C335.098 297.306 351.838 279.518 358.422 262.377C360.592 256.726 361.659 252.885 362.809 246.681C363.837 241.14 364.172 233.96 363.92 227.004C363.669 220.057 362.825 213.136 361.402 208.135C358.54 198.706 355.845 193.041 348.591 181.629C347.952 180.793 347.419 180.057 346.906 179.351C345.463 177.361 344.188 175.604 341.207 172.482C339.463 170.163 335.81 167.119 332.094 164.373C328.222 161.512 323.939 158.728 320.85 157.054C310.504 151.448 300.601 148.401 289.151 147.309C289.088 147.303 289.025 147.3 288.962 147.299C271.231 147.017 245.631 147.009 223.515 147.002L219.696 147C203.033 146.995 187.881 147.051 176.892 147.147C171.4 147.195 166.94 147.253 163.849 147.318C162.306 147.351 161.089 147.385 160.251 147.422C159.838 147.44 159.485 147.46 159.223 147.483C159.103 147.494 158.94 147.51 158.781 147.539C158.719 147.55 158.543 147.581 158.339 147.654C158.252 147.685 158.007 147.775 157.739 147.965C157.556 148.095 156.728 148.721 156.728 149.922C156.728 150.484 156.932 150.9 156.968 150.973L156.971 150.98C157.038 151.119 157.105 151.226 157.142 151.282C157.218 151.399 157.296 151.5 157.347 151.565C157.457 151.704 157.593 151.862 157.735 152.022C158.026 152.351 158.438 152.796 158.947 153.335C159.97 154.418 161.439 155.937 163.241 157.778C166.848 161.462 171.818 166.463 177.281 171.891L197.127 191.613C197.575 192.058 198.179 192.307 198.81 192.308L220.933 192.326C231.835 192.334 246.134 192.344 258.909 192.466C272.955 192.6 284.894 192.869 288.618 193.384C303.569 195.45 316.35 210.171 318.481 225.417C318.789 227.617 318.739 231.011 318.394 234.518Z" fill="#14B8A6"></path>
<path fill-rule="evenodd" clip-rule="evenodd" d="M242.5 14.3301C247.141 11.6506 252.859 11.6506 257.5 14.3301L450.346 125.67C454.987 128.349 457.846 133.301 457.846 138.66V361.34C457.846 366.699 454.987 371.651 450.346 374.33L257.5 485.67C252.859 488.349 247.141 488.349 242.5 485.67L49.6539 374.33C45.0129 371.651 42.1539 366.699 42.1539 361.34V138.66C42.1539 133.301 45.0129 128.349 49.6539 125.67L242.5 14.3301ZM251.5 24.7224L444.346 136.062C445.274 136.598 445.846 137.588 445.846 138.66V361.34C445.846 362.412 445.274 363.402 444.346 363.938L251.5 475.278C250.572 475.813 249.428 475.813 248.5 475.278L55.6539 363.938C54.7257 363.402 54.1539 362.412 54.1539 361.34V138.66C54.1539 137.588 54.7257 136.598 55.6539 136.062L248.5 24.7224C249.428 24.1865 250.572 24.1865 251.5 24.7224Z" fill="#14B8A6"></path>
</svg><style>@media (prefers-color-scheme: light) { :root { filter: none; } }
</style></svg>