<?xml version="1.0" standalone="no"?>
<!DOCTYPE svg PUBLIC "-//W3C//DTD SVG 20010904//EN"
 "http://www.w3.org/TR/2001/REC-SVG-20010904/DTD/svg10.dtd">
<svg version="1.0" xmlns="http://www.w3.org/2000/svg"
 width="700.000000pt" height="700.000000pt" viewBox="0 0 700.000000 700.000000"
 preserveAspectRatio="xMidYMid meet">
<metadata>
Created by potrace 1.14, written by Peter Selinger 2001-2017
</metadata>
<g transform="translate(0.000000,700.000000) scale(0.100000,-0.100000)"
fill="#000000" stroke="none">
<path d="M3422 6810 c-21 -8 -53 -24 -72 -36 -56 -33 -459 -267 -522 -303 -19
-10 -92 -52 -164 -93 -71 -42 -203 -118 -294 -170 -91 -53 -320 -185 -510
-295 -190 -110 -484 -280 -655 -378 -585 -336 -575 -330 -604 -414 -8 -25 -11
-463 -11 -1628 l0 -1593 21 -45 c19 -39 93 -115 113 -115 3 0 178 -99 389
-221 210 -122 531 -307 712 -411 182 -105 371 -214 420 -243 88 -52 636 -368
705 -408 19 -10 125 -71 235 -135 110 -64 211 -121 225 -128 39 -19 98 -25
139 -14 21 5 163 82 317 171 153 88 297 171 319 184 22 12 128 73 235 135 107
63 249 144 315 182 66 37 127 72 135 77 16 11 114 67 510 296 140 81 372 215
515 297 143 83 280 162 305 176 133 75 168 105 198 175 9 21 12 409 12 1630
-1 1567 -1 1603 -20 1642 -21 43 -70 91 -117 115 -22 12 -207 118 -313 180 -8
5 -197 113 -419 242 -222 128 -420 242 -440 254 -51 30 -300 173 -336 194 -16
9 -176 102 -355 205 -440 254 -639 369 -739 427 -123 71 -171 80 -249 48z
m191 -209 c45 -26 249 -144 452 -261 204 -118 483 -279 620 -358 138 -80 340
-196 450 -260 110 -63 237 -137 283 -163 45 -27 85 -49 88 -49 3 0 25 -13 49
-30 24 -16 46 -30 48 -30 2 0 54 -29 115 -64 61 -36 131 -76 154 -89 120 -67
345 -201 357 -212 11 -11 13 -277 13 -1585 0 -1516 -1 -1573 -19 -1590 -10
-10 -43 -31 -73 -47 -30 -17 -167 -95 -305 -175 -137 -79 -281 -162 -318 -184
-38 -21 -83 -47 -100 -58 -18 -10 -111 -63 -207 -118 -96 -56 -195 -113 -220
-128 -25 -15 -65 -39 -90 -53 -47 -26 -867 -499 -1191 -687 -102 -59 -196
-111 -208 -115 -14 -4 -31 -1 -46 9 -13 9 -41 25 -62 37 -116 66 -160 91 -173
99 -42 26 -203 120 -206 120 -3 0 -143 80 -174 100 -8 5 -42 24 -75 43 -89 51
-115 66 -290 167 -88 51 -175 102 -194 112 -19 11 -102 59 -185 107 -233 135
-604 350 -645 373 -20 12 -54 31 -76 43 -183 104 -603 349 -613 360 -20 19
-20 3151 0 3170 12 12 498 296 625 366 29 16 82 47 119 69 36 22 67 40 69 40
2 0 49 27 104 60 56 33 104 60 108 60 3 0 14 6 22 14 9 7 41 27 71 43 30 17
138 79 240 138 102 59 203 117 225 129 22 12 171 98 330 190 160 93 364 211
455 264 91 52 206 119 255 148 61 37 97 52 113 49 12 -3 59 -27 105 -54z"/>
<path d="M2826 4943 c-1 -1 -134 -3 -295 -4 -162 -1 -302 -4 -312 -6 -9 -3
-20 -14 -23 -26 -4 -17 47 -73 282 -309 l288 -289 594 -4 c327 -2 622 -7 654
-10 197 -21 376 -184 431 -392 17 -62 18 -173 3 -256 -27 -147 -175 -313 -337
-376 -28 -12 -86 -23 -128 -26 -42 -3 -454 -6 -917 -7 -463 -1 -849 -3 -858
-6 -9 -2 -19 -10 -22 -17 -3 -8 45 -159 105 -337 61 -178 121 -354 134 -393
38 -112 271 -793 297 -869 27 -76 47 -98 76 -80 21 14 20 -21 22 567 l2 497
26 0 c15 0 304 2 642 4 338 2 629 7 645 10 268 61 436 150 614 326 77 76 121
128 187 225 52 75 124 261 138 353 3 23 9 61 13 85 8 51 8 274 0 337 -23 177
-84 329 -200 504 -80 119 -178 216 -302 298 -203 134 -366 187 -600 195 -137
4 -1155 10 -1159 6z"/>
</g>
</svg>
